<?xml version="1.0" encoding="UTF-8"?>
<svg width="64" height="64" viewBox="0 0 64 64" xmlns="http://www.w3.org/2000/svg">
  <defs>
    <linearGradient id="gold-gradient" x1="0%" y1="0%" x2="100%" y2="100%">
      <stop offset="0%" style="stop-color:#FFD700"/>
      <stop offset="100%" style="stop-color:#FFA500"/>
    </linearGradient>
  </defs>
  <path d="M32 8C18.7 8 8 18.7 8 32s10.7 24 24 24 24-10.7 24-24S45.3 8 32 8zm0 44c-11 0-20-9-20-20s9-20 20-20 20 9 20 20-9 20-20 20z" fill="url(#gold-gradient)"/>
  <path d="M32 16c-8.8 0-16 7.2-16 16s7.2 16 16 16 16-7.2 16-16-7.2-16-16-16zm0 28c-6.6 0-12-5.4-12-12s5.4-12 12-12 12 5.4 12 12-5.4 12-12 12z" fill="url(#gold-gradient)" opacity="0.6"/>
</svg>
